# xmcd CD database file
# Copyright (C) 1993-1998 Ti Kan
#
# Track frame offsets:
#  200
#  38907
#  69995
#  92435
#  106327
#  123145
#  155877
#  189770
#
# Disc length: 2796 seconds
#
# Revision: 1
# Processed by: cddbd v1.4b41PL1 Copyright (c) Steve Scherf et al.
# Submitted via: CDWizzard Release:4.35
#
DISCID=5b0aea08
DTITLE=Tommy Ray O'Dell - Preacher Blues
DYEAR=1900
DGENRE=
TTITLE0=If God Can Use Me
TTITLE1=Daddy don't need a shot
TTITLE2=Left Home
TTITLE3=Corn bread and beans
TTITLE4=Mean Preacher's Blues
TTITLE5=I'm A Gypsy
TTITLE6=Out Light
TTITLE7=Answer to mean preacher's blues
EXTD=
EXTT0=
EXTT1=
EXTT2=
EXTT3=
EXTT4=
EXTT5=
EXTT6=
EXTT7=
PLAYORDER=
